<?xml version="1.0" encoding="UTF-8" standalone="no"?>
<!-- Created with Inkscape (http://www.inkscape.org/) -->

<svg
   xmlns:dc="http://purl.org/dc/elements/1.1/"
   xmlns:cc="http://creativecommons.org/ns#"
   xmlns:rdf="http://www.w3.org/1999/02/22-rdf-syntax-ns#"
   xmlns:svg="http://www.w3.org/2000/svg"
   xmlns="http://www.w3.org/2000/svg"
   xmlns:sodipodi="http://sodipodi.sourceforge.net/DTD/sodipodi-0.dtd"
   xmlns:inkscape="http://www.inkscape.org/namespaces/inkscape"
   width="96.398796mm"
   height="30.832159mm"
   viewBox="0 0 96.398796 30.832159"
   version="1.1"
   id="svg14061"
   inkscape:version="0.92.4 (5da689c313, 2019-01-14)"
   sodipodi:docname="friftrlogo.svg">
  <defs
     id="defs14055" />
  <sodipodi:namedview
     id="base"
     pagecolor="#ffffff"
     bordercolor="#666666"
     borderopacity="1.0"
     inkscape:pageopacity="0.0"
     inkscape:pageshadow="2"
     inkscape:zoom="0.35"
     inkscape:cx="443.59952"
     inkscape:cy="55.408352"
     inkscape:document-units="mm"
     inkscape:current-layer="layer1"
     showgrid="false"
     fit-margin-top="0"
     fit-margin-left="0"
     fit-margin-right="0"
     fit-margin-bottom="0"
     inkscape:window-width="960"
     inkscape:window-height="1017"
     inkscape:window-x="2872"
     inkscape:window-y="-8"
     inkscape:window-maximized="0" />
  <metadata
     id="metadata14058">
    <rdf:RDF>
      <cc:Work
         rdf:about="">
        <dc:format>image/svg+xml</dc:format>
        <dc:type
           rdf:resource="http://purl.org/dc/dcmitype/StillImage" />
        <dc:title></dc:title>
      </cc:Work>
    </rdf:RDF>
  </metadata>
  <g
     inkscape:label="Layer 1"
     inkscape:groupmode="layer"
     id="layer1"
     transform="translate(-29.663699,-99.399396)">
    <g
       id="g3659-5-1"
       transform="matrix(1.1163379,0,0,1.1163379,-31.42179,-299.69099)"
       inkscape:export-filename="C:\Users\Corvus\Pictures\friftr\g5999.png"
       inkscape:export-xdpi="176.53999"
       inkscape:export-ydpi="176.53999"
       style="display:inline;fill:#000000">
      <path
         inkscape:connector-curvature="0"
         id="path4496-3-9-8-0-0-8"
         d="m 87.527866,367.39156 v 17.46456 h 5.027084 v -17.46456 z"
         style="fill:#000000;fill-opacity:1;stroke-width:0.26458341" />
      <path
         inkscape:connector-curvature="0"
         id="path4496-3-94-1-6-4-64-1-0"
         d="m 63.317456,359.18017 c -4.981736,0 -7.216854,1.5785 -8.196913,4.65605 -0.317145,0.99588 -0.40101,3.34639 -0.40101,11.27011 v 9.74979 h 5.319572 v -9.59321 h 9.312608 v -4.23333 h -9.312608 v -4.57234 c 0,-1.43903 0.649557,-2.63136 3.278351,-2.63136 2.628803,0 3.278871,1.19233 3.278871,2.63136 v 0.93432 0.45371 l 5.319572,-0.015 c 0,0 -0.08386,-2.99819 -0.401008,-3.99407 -0.980062,-3.07755 -3.215696,-4.65605 -8.197435,-4.65605 z"
         style="fill:#000000;fill-opacity:1;stroke-width:0.27216694" />
      <path
         sodipodi:nodetypes="cccccscccc"
         inkscape:connector-curvature="0"
         id="path4496-3-94-1-6-4-6-5-2-1"
         d="m 79.148533,366.92853 c -1.380567,-0.0101 -2.201204,0.17409 -3.046844,0.46303 H 73.22693 l -0.0011,17.72709 h 5.022432 V 372.0321 c 0,-2.13932 2.606495,-2.23389 2.644801,0 v 0.97306 l 4.113443,-0.0103 c 0.03339,-4.14461 -1.65812,-6.06628 -5.858015,-6.06628 z"
         style="fill:#000000;fill-opacity:1;stroke-width:0.18351561" />
      <path
         inkscape:connector-curvature="0"
         id="path4496-3-94-1-6-4-3-2-5-9"
         d="m 104.59246,359.18017 c -4.981742,0 -7.216858,1.5785 -8.196917,4.65605 -0.317145,0.99588 -0.40101,3.34639 -0.40101,11.27011 v 9.74979 h 5.319577 v -9.59321 h 9.3126 v -4.23333 h -9.3126 v -4.57234 c 0,-1.43903 0.64955,-2.63136 3.27835,-2.63136 2.6288,0 3.27887,1.19233 3.27887,2.63136 v 0.93432 0.45371 l 5.31957,-0.015 c 0,0 -0.0839,-2.99819 -0.40101,-3.99407 -0.98006,-3.07755 -3.21569,-4.65605 -8.19743,-4.65605 z"
         style="fill:#000000;fill-opacity:1;stroke-width:0.27216694" />
      <path
         id="rect4815-7-6-3"
         d="m 115.63054,361.53302 v 23.32312 h 5.02709 v -13.51235 h 6.3872 v -4.26589 h -6.3872 v -5.54488 z"
         style="opacity:1;vector-effect:none;fill:#000000;fill-opacity:1;stroke:none;stroke-width:0.26458338;stroke-linecap:butt;stroke-linejoin:miter;stroke-miterlimit:4;stroke-dasharray:none;stroke-dashoffset:0;stroke-opacity:1"
         inkscape:connector-curvature="0" />
      <path
         sodipodi:nodetypes="cccccscccc"
         inkscape:connector-curvature="0"
         id="path4496-3-94-1-6-4-6-7-6-2-7"
         d="m 135.21368,366.92853 c -1.38057,-0.0101 -2.2012,0.17409 -3.04684,0.46303 h -2.87476 l -0.001,17.72709 h 5.02243 V 372.0321 c 0,-2.13932 2.60649,-2.23389 2.6448,0 v 0.97306 l 4.11344,-0.0103 c 0.0334,-4.14461 -1.65812,-6.06628 -5.85801,-6.06628 z"
         style="fill:#000000;fill-opacity:1;stroke-width:0.18351561" />
      <path
         id="rect4616-3-4-3"
         d="m 90.032231,357.49963 v 0.0227 c -0.480221,2.87501 -1.683887,5.50799 -4.088124,9.23819 1.392055,-0.75536 2.755561,-1.11599 4.088124,-1.12239 0.0013,0 0.0028,-2e-5 0.0041,0 1.332561,0.006 2.696073,0.36703 4.088123,1.12239 -2.404237,-3.7302 -3.607904,-6.3632 -4.088125,-9.23819 v -0.0227 c -5.29e-4,0.004 -0.0013,0.008 -0.0021,0.0114 -5.29e-4,-0.004 -0.0013,-0.008 -0.0021,-0.0114 z"
         style="opacity:1;vector-effect:none;fill:#ffffff;fill-opacity:1;stroke:none;stroke-width:1;stroke-linecap:butt;stroke-linejoin:miter;stroke-miterlimit:4;stroke-dasharray:none;stroke-dashoffset:0;stroke-opacity:1"
         inkscape:connector-curvature="0" />
    </g>
  </g>
</svg>
